<?xml version="1.0" encoding="utf-8"?>
<!-- Generator: Adobe Illustrator 25.1.0, SVG Export Plug-In . SVG Version: 6.00 Build 0)  -->
<svg version="1.1" id="Layer_1" xmlns="http://www.w3.org/2000/svg" xmlns:xlink="http://www.w3.org/1999/xlink" x="0px" y="0px"
	 viewBox="0 0 162 35.1" style="enable-background:new 0 0 162 35.1;" xml:space="preserve">
<style type="text/css">
	.st0{fill:#FE624B;}
	.st1{fill:#696CB9;}
	.st2{fill:#FFFFFF;}
</style>
<path class="st0" d="M8.2,6.3C8.2,2.8,11,0,14.4,0s6.2,2.8,6.2,6.3v8.4H8.2V6.3z"/>
<path class="st0" d="M13.7,28.8c0,3.5,2.8,6.3,6.2,6.3s6.2-2.8,6.2-6.3v-8.4H13.7V28.8z"/>
<path class="st1" d="M6.2,14C2.8,14,0,16.9,0,20.4s2.8,6.3,6.2,6.3h7.5V14H6.2z"/>
<path class="st1" d="M28.1,8.4c3.4,0,6.2,2.8,6.2,6.3s-2.8,6.3-6.2,6.3h-7.5V8.4H28.1z"/>
<path class="st2" d="M13.7,8.4h6.9v18.3h-6.9V8.4z"/>
<path class="st2" d="M26,14v7H8.2v-7H26z"/>
<g>
	<path d="M50.9,8.7v2.9h-7.5v4.6h5.8v2.9h-5.8v7.6h-3.6v-18H50.9z"/>
	<path d="M53.4,15.6c0.6-1.1,1.4-2,2.3-2.6c1-0.6,2.1-0.9,3.3-0.9c1.1,0,2,0.2,2.8,0.6c0.8,0.4,1.4,1,1.9,1.6v-2h3.6v14.3h-3.6v-2.1
		c-0.5,0.7-1.1,1.2-1.9,1.7s-1.8,0.7-2.8,0.7c-1.2,0-2.3-0.3-3.3-0.9c-1-0.6-1.8-1.5-2.3-2.6c-0.6-1.1-0.9-2.4-0.9-3.9
		C52.6,18,52.9,16.8,53.4,15.6z M63.3,17.3c-0.3-0.6-0.8-1.1-1.4-1.4c-0.6-0.3-1.2-0.5-1.9-0.5c-0.7,0-1.3,0.2-1.9,0.5
		c-0.6,0.3-1,0.8-1.4,1.4c-0.4,0.6-0.5,1.4-0.5,2.2c0,0.9,0.2,1.6,0.5,2.3c0.4,0.6,0.8,1.1,1.4,1.5c0.6,0.3,1.2,0.5,1.8,0.5
		c0.7,0,1.3-0.2,1.9-0.5c0.6-0.3,1-0.8,1.4-1.4c0.3-0.6,0.5-1.4,0.5-2.3S63.6,17.9,63.3,17.3z"/>
	<path d="M76.4,12.8c0.7-0.4,1.6-0.6,2.6-0.6V16h-1c-1.1,0-2,0.3-2.6,0.8c-0.6,0.5-0.9,1.5-0.9,2.8v7.1H71V12.4h3.6v2.2
		C75.1,13.9,75.7,13.3,76.4,12.8z"/>
	<path d="M103.4,13.8c1.1,1.1,1.6,2.6,1.6,4.5v8.4h-3.6v-7.9c0-1.1-0.3-2-0.9-2.6c-0.6-0.6-1.3-0.9-2.3-0.9c-1,0-1.8,0.3-2.3,0.9
		c-0.6,0.6-0.9,1.5-0.9,2.6v7.9h-3.6v-7.9c0-1.1-0.3-2-0.9-2.6c-0.6-0.6-1.3-0.9-2.3-0.9c-1,0-1.8,0.3-2.4,0.9
		c-0.6,0.6-0.9,1.5-0.9,2.6v7.9h-3.6V12.4H85v1.7c0.5-0.6,1.1-1.1,1.8-1.4c0.7-0.3,1.5-0.5,2.4-0.5c1.1,0,2.1,0.2,3,0.7
		c0.9,0.5,1.6,1.1,2,2c0.5-0.8,1.1-1.5,2-2c0.9-0.5,1.8-0.7,2.9-0.7C100.9,12.2,102.3,12.7,103.4,13.8z"/>
	<path d="M108.4,15.6c0.6-1.1,1.4-2,2.3-2.6c1-0.6,2.1-0.9,3.3-0.9c1.1,0,2,0.2,2.8,0.6c0.8,0.4,1.4,1,1.9,1.6v-2h3.6v14.3h-3.6
		v-2.1c-0.5,0.7-1.1,1.2-1.9,1.7s-1.8,0.7-2.8,0.7c-1.2,0-2.3-0.3-3.3-0.9c-1-0.6-1.8-1.5-2.3-2.6c-0.6-1.1-0.9-2.4-0.9-3.9
		C107.5,18,107.8,16.8,108.4,15.6z M118.3,17.3c-0.3-0.6-0.8-1.1-1.4-1.4c-0.6-0.3-1.2-0.5-1.9-0.5s-1.3,0.2-1.9,0.5
		c-0.6,0.3-1,0.8-1.4,1.4c-0.4,0.6-0.5,1.4-0.5,2.2c0,0.9,0.2,1.6,0.5,2.3c0.4,0.6,0.8,1.1,1.4,1.5c0.6,0.3,1.2,0.5,1.8,0.5
		c0.7,0,1.3-0.2,1.9-0.5s1-0.8,1.4-1.4c0.3-0.6,0.5-1.4,0.5-2.3S118.6,17.9,118.3,17.3z"/>
	<path d="M125.9,15.7c0.6-1.1,1.4-2,2.5-2.6c1.1-0.6,2.3-0.9,3.7-0.9c1.8,0,3.2,0.4,4.4,1.3c1.2,0.9,1.9,2.1,2.3,3.7H135
		c-0.2-0.6-0.6-1.1-1-1.5c-0.5-0.4-1.1-0.5-1.8-0.5c-1,0-1.8,0.4-2.5,1.1s-0.9,1.8-0.9,3.2c0,1.4,0.3,2.4,0.9,3.2
		c0.6,0.7,1.4,1.1,2.5,1.1c1.5,0,2.4-0.7,2.9-2h3.9c-0.4,1.5-1.2,2.8-2.3,3.7c-1.2,0.9-2.6,1.4-4.4,1.4c-1.4,0-2.6-0.3-3.7-0.9
		c-1.1-0.6-1.9-1.5-2.5-2.6S125,21,125,19.5C125,18.1,125.3,16.8,125.9,15.7z"/>
	<path d="M141.8,10.1c-0.4-0.4-0.6-0.9-0.6-1.5s0.2-1.1,0.6-1.5c0.4-0.4,1-0.6,1.6-0.6s1.2,0.2,1.6,0.6c0.4,0.4,0.6,0.9,0.6,1.5
		s-0.2,1.1-0.6,1.5s-1,0.6-1.6,0.6S142.2,10.5,141.8,10.1z M145.1,12.4v14.3h-3.6V12.4H145.1z"/>
	<path d="M161.9,20.6h-10.5c0.1,1,0.4,1.8,1.1,2.4c0.6,0.6,1.4,0.9,2.3,0.9c1.3,0,2.3-0.6,2.9-1.7h3.9c-0.4,1.4-1.2,2.5-2.4,3.4
		s-2.6,1.3-4.3,1.3c-1.4,0-2.6-0.3-3.7-0.9c-1.1-0.6-1.9-1.5-2.6-2.6c-0.6-1.1-0.9-2.4-0.9-3.9c0-1.5,0.3-2.8,0.9-3.9
		c0.6-1.1,1.4-2,2.5-2.6s2.3-0.9,3.7-0.9c1.4,0,2.6,0.3,3.7,0.9s1.9,1.4,2.5,2.5c0.6,1.1,0.9,2.3,0.9,3.7
		C162,19.7,161.9,20.2,161.9,20.6z M158.2,18.2c0-0.9-0.4-1.7-1-2.2c-0.7-0.6-1.5-0.8-2.4-0.8c-0.9,0-1.6,0.3-2.3,0.8
		c-0.6,0.5-1,1.3-1.1,2.3H158.2z"/>
</g>
</svg>
